<?xml version="1.0" encoding="UTF-8" standalone="no"?>
<!DOCTYPE svg PUBLIC "-//W3C//DTD SVG 1.1//EN" "http://www.w3.org/Graphics/SVG/1.1/DTD/svg11.dtd">
<svg version="1.1" xmlns="http://www.w3.org/2000/svg" xmlns:xlink="http://www.w3.org/1999/xlink" preserveAspectRatio="xMidYMid meet" viewBox="0 0 640 640" width="640" height="640"><defs><path d="M320 3L320 3L25 108.35L69.99 498.97L320 637.63L320 637.63L320 637.63L570 498.97L615 108.35L320 3L320 3Z" id="efGONzVzQ"></path><path d="M320 73.45L320 73.13L320 394.57L320 394.57L320 637.63L320 637.63L570 498.97L615 108.35L320 3L320 3L320 73.45Z" id="hQrlUK0zt"></path><path d="M135.58 487.22L135.58 487.22L204.34 487.22L204.34 487.22L241.42 394.57L397.95 394.57L435.02 487.22L435.02 487.22L503.78 487.22L503.78 487.22L320 73.13L320 73.13L320 73.13L320 73.13L320 73.13L135.58 487.22ZM266.13 337.45L320 207.67L373.86 337.45L266.13 337.45Z" id="g7byMXa6f4"></path></defs><g><g><g><use xlink:href="#efGONzVzQ" opacity="1" fill="#dd0031" fill-opacity="1"></use><g><use xlink:href="#efGONzVzQ" opacity="1" fill-opacity="0" stroke="#000000" stroke-width="1" stroke-opacity="0"></use></g></g><g><use xlink:href="#hQrlUK0zt" opacity="1" fill="#c3002f" fill-opacity="1"></use><g><use xlink:href="#hQrlUK0zt" opacity="1" fill-opacity="0" stroke="#000000" stroke-width="1" stroke-opacity="0"></use></g></g><g><use xlink:href="#g7byMXa6f4" opacity="1" fill="#ffffff" fill-opacity="1"></use><g><use xlink:href="#g7byMXa6f4" opacity="1" fill-opacity="0" stroke="#000000" stroke-width="1" stroke-opacity="0"></use></g></g></g></g></svg>